<?xml version="1.0" encoding="utf-8"?>
<svg version="1.1" xmlns="http://www.w3.org/2000/svg" xmlns:xlink="http://www.w3.org/1999/xlink" x="0px" y="0px" viewBox="0 0 80 80" xml:space="preserve">
<g fill="none" stroke="#f59361" stroke-width="2" stroke-miterlimit="10">
  <g stroke-linecap="round" stroke-linejoin="round" >
  	<polyline points="33,28 51,60 37.5,60 19.5,28 1,60"/>
  	<line x1="19.5" y1="28" x2="33" y2="28"/>
  	<polyline points="54.2,16 79,60 60.4,60 35.5,16 30.6,24.5"/>
  	<line x1="35.5" y1="16" x2="54.2" y2="16"/>
  	<path d="M13,60v-8.8c0-3.4,2.7-6.2,6-6.2l0,0c3.3,0,6,2.8,6,6.2V60"/>
  	<line x1="25" y1="60" x2="13" y2="60"/>
  	<line x1="25" y1="53" x2="13" y2="53"/>
  </g>
	<line x1="19" y1="45" x2="19" y2="60"/>
</g>
</svg>
