<?xml version="1.0" encoding="utf-8"?>
<svg version="1.1" xmlns="http://www.w3.org/2000/svg" xmlns:xlink="http://www.w3.org/1999/xlink" x="0px" y="0px" viewBox="0 0 80 80" xml:space="preserve">
	<path fill="#f59361" d="M80,35.6L61.2,9l-8,7.5l-4-6.4H47l-1.7-5.8l-34.1,9.3l5.1,16.8L0.4,25.8l10.2,33l13.1,1.7L28.8,75l33.5-12.2l1.1-5.8L76,53l-9.7-5.2L80,35.6z M60.7,12.5L76.6,35L60.1,48.9l2.8-16.8l-8.5-13.3L60.7,12.5z M48.2,11.9l13.1,20.3L51.6,35L43,20l-19.9,5.2l-2.8-5.8L48.2,11.9z M13.5,14.8l30.1-7.5c0,0,1.2,3.9,1.7,4.1c0.5,0.2-26.7,6.4-26.7,6.4s2.6,22,2.3,22L13.5,14.8z M11.8,56.5l-8-27.2l13.1,3.5l9.7,25.5L11.8,56.5z M24.3,33.9L43,28.1c0,0,6.8,14.4,7.4,14.5c0.6,0.1-9.7,2.9-9.7,2.9l-4-8.1L27,40.3L24.3,33.9z M28.3,47.8l8-2.9l3.4,7.5l-8.5,2.9L28.3,47.8z M69.8,52.4L33.4,64.6L30,59.9l33-11L69.8,52.4z"/>
</svg>
